<svg width="193" height="70" viewBox="0 0 193 70" fill="none" xmlns="http://www.w3.org/2000/svg">
<rect x="3" y="3" width="187" height="64" rx="32" fill="white" stroke="#005159" stroke-width="6"/>
<path d="M86.4411 30.288C86.3771 29.072 86.0998 28.0373 85.6091 27.184C85.1185 26.3307 84.4891 25.6267 83.7211 25.072C82.9745 24.496 82.1105 24.0693 81.1291 23.792C80.1478 23.4933 79.1345 23.3013 78.0891 23.216C77.0651 23.1307 76.0305 23.1413 74.9851 23.248C73.9611 23.3547 73.0118 23.5253 72.1371 23.76C72.2011 25.5307 72.2331 27.3867 72.2331 29.328C72.2545 31.2693 72.2651 33.2 72.2651 35.12C72.2651 37.04 72.2651 38.9173 72.2651 40.752C72.2651 42.5653 72.2971 44.2507 72.3611 45.808C72.7238 45.8507 73.1505 45.8827 73.6411 45.904C74.1318 45.9253 74.6225 45.936 75.1131 45.936C75.6251 45.9147 76.1051 45.8933 76.5531 45.872C77.0225 45.8293 77.4065 45.7653 77.7051 45.68C77.7265 45.68 77.7371 45.68 77.7371 45.68C77.7585 45.6587 77.7798 45.648 77.8011 45.648V45.616C77.7585 44.0587 77.7265 42.8213 77.7051 41.904C77.7051 40.9867 77.7051 40.2613 77.7051 39.728C77.7051 39.1733 77.7051 38.7573 77.7051 38.48C77.7051 38.1813 77.6945 37.8827 77.6731 37.584C78.6971 37.7547 79.6998 37.712 80.6811 37.456C81.6625 37.1787 82.5585 36.7413 83.3691 36.144C84.1798 35.5467 84.8518 34.8213 85.3851 33.968C85.9398 33.1147 86.2811 32.176 86.4091 31.152C86.4305 31.024 86.4411 30.896 86.4411 30.768C86.4411 30.6187 86.4411 30.4693 86.4411 30.32V30.288ZM80.8411 28.944C81.1185 29.1147 81.3318 29.328 81.4811 29.584C81.6518 29.84 81.7585 30.1173 81.8011 30.416C81.8651 30.7147 81.8545 31.0133 81.7691 31.312C81.7051 31.6107 81.5878 31.8773 81.4171 32.112C81.1611 32.368 80.8518 32.56 80.4891 32.688C80.1478 32.7947 79.7851 32.8693 79.4011 32.912C79.0385 32.9547 78.6651 32.9867 78.2811 33.008C77.8971 33.008 77.5345 33.0187 77.1931 33.04H77.0971C76.9905 32.72 76.9158 32.368 76.8731 31.984C76.8518 31.5787 76.8305 31.1627 76.8091 30.736C76.8091 30.3093 76.8091 29.8827 76.8091 29.456C76.8305 29.0293 76.8305 28.624 76.8091 28.24C76.8305 28.2187 76.8625 28.208 76.9051 28.208C77.5878 28.0373 78.2811 28.016 78.9851 28.144C79.6891 28.2507 80.3078 28.5173 80.8411 28.944ZM88.1074 22.736C87.9154 24.6773 87.8194 26.6187 87.8194 28.56C87.8407 30.5013 87.8834 32.4427 87.9474 34.384C88.0114 36.3253 88.054 38.2667 88.0754 40.208C88.118 42.1493 88.0647 44.08 87.9154 46C88.0647 45.9573 88.3634 45.9467 88.8114 45.968C89.2594 45.9893 89.7287 46 90.2194 46C90.7314 46.0213 91.2007 46.0213 91.6274 46C92.054 46 92.3207 45.936 92.4274 45.808C92.3847 44.9547 92.3527 43.92 92.3314 42.704C92.31 41.4667 92.2994 40.144 92.2994 38.736C92.2994 37.328 92.2994 35.8667 92.2994 34.352C92.3207 32.8373 92.342 31.376 92.3634 29.968C92.3847 28.56 92.406 27.2373 92.4274 26C92.4487 24.7627 92.4594 23.7067 92.4594 22.832L88.1074 22.736ZM107.501 30.064C106.818 30.0213 106.21 29.9893 105.677 29.968C105.165 29.9467 104.728 29.9253 104.365 29.904C104.301 29.904 104.184 29.904 104.013 29.904C103.842 29.904 103.672 29.904 103.501 29.904C103.33 29.8827 103.17 29.8827 103.021 29.904C102.893 29.904 102.829 29.9147 102.829 29.936C102.829 30.192 102.797 30.448 102.733 30.704C102.69 30.9387 102.68 31.2267 102.701 31.568C102.552 31.2053 102.37 30.928 102.157 30.736C101.944 30.5227 101.698 30.3733 101.421 30.288C101.144 30.1813 100.834 30.128 100.493 30.128C100.173 30.1067 99.8211 30.096 99.4371 30.096C98.6905 30.1173 97.9865 30.32 97.3251 30.704C96.6638 31.0667 96.0878 31.5787 95.5971 32.24C95.1278 32.88 94.7545 33.648 94.4771 34.544C94.1998 35.44 94.0611 36.4213 94.0611 37.488C94.0611 38.3413 94.1465 39.2693 94.3171 40.272C94.5091 41.2747 94.7971 42.2027 95.1811 43.056C95.5651 43.9093 96.0451 44.624 96.6211 45.2C97.2185 45.776 97.9331 46.064 98.7651 46.064C99.5118 46.064 100.269 45.8827 101.037 45.52C101.826 45.1573 102.477 44.72 102.989 44.208C102.989 44.4213 102.968 44.6027 102.925 44.752C102.882 44.9013 102.861 45.0933 102.861 45.328C102.861 45.4987 102.882 45.648 102.925 45.776C102.989 45.904 103.096 45.9893 103.245 46.032C103.48 46.032 103.704 46.0213 103.917 46C104.152 45.9573 104.386 45.936 104.621 45.936C104.962 45.936 105.304 45.9573 105.645 46C106.008 46.0213 106.36 46.032 106.701 46.032H107.085C107.341 45.9893 107.469 45.8293 107.469 45.552C107.49 45.2747 107.501 44.9973 107.501 44.72C107.65 42.4373 107.682 40.1867 107.597 37.968C107.512 35.728 107.501 33.456 107.565 31.152V30.832C107.565 30.704 107.554 30.576 107.533 30.448C107.533 30.32 107.522 30.192 107.501 30.064ZM98.1891 36.432C98.2958 35.8987 98.5945 35.4293 99.0851 35.024C99.5971 34.5973 100.29 34.384 101.165 34.384C101.613 34.384 101.944 34.416 102.157 34.48C102.392 34.544 102.552 34.6933 102.637 34.928C102.744 35.1627 102.797 35.504 102.797 35.952C102.818 36.3787 102.829 36.9653 102.829 37.712C102.829 38.3093 102.818 38.8533 102.797 39.344C102.797 39.8133 102.733 40.2187 102.605 40.56C102.498 40.88 102.306 41.136 102.029 41.328C101.773 41.4987 101.378 41.584 100.845 41.584C99.9491 41.584 99.2451 41.2533 98.7331 40.592C98.2425 39.9093 97.9971 39.088 97.9971 38.128C97.9971 37.8507 98.0078 37.5733 98.0291 37.296C98.0505 36.9973 98.1038 36.7093 98.1891 36.432ZM113.504 30.096C112.821 30.0107 112.053 30 111.2 30.064C110.347 30.1067 109.536 30.0853 108.768 30C109.429 32.4107 110.101 34.9067 110.784 37.488C111.467 40.0693 112.032 42.6507 112.48 45.232C112.587 45.936 112.523 46.448 112.288 46.768C112.075 47.088 111.755 47.2907 111.328 47.376C110.901 47.4827 110.411 47.5147 109.856 47.472C109.323 47.4293 108.8 47.408 108.288 47.408C108.181 48.0053 108.139 48.6987 108.16 49.488C108.16 50.2987 108.267 51.024 108.48 51.664C110.293 51.7707 111.819 51.632 113.056 51.248C114.315 50.864 115.36 50.2987 116.192 49.552C117.045 48.8267 117.728 47.9627 118.24 46.96C118.752 45.9573 119.168 44.9013 119.488 43.792C119.829 42.6827 120.107 41.552 120.32 40.4C120.555 39.248 120.811 38.1493 121.088 37.104C121.344 35.9947 121.6 34.864 121.856 33.712C122.133 32.5387 122.443 31.312 122.784 30.032C121.888 29.968 121.067 29.9573 120.32 30C119.573 30.0427 118.837 30.0533 118.112 30.032C117.856 30.672 117.643 31.5147 117.472 32.56C117.301 33.6053 117.141 34.6933 116.992 35.824C116.864 36.9547 116.725 38.0427 116.576 39.088C116.427 40.1333 116.235 40.976 116 41.616C115.765 40.976 115.531 40.1653 115.296 39.184C115.061 38.1813 114.837 37.136 114.624 36.048C114.411 34.96 114.208 33.8933 114.016 32.848C113.824 31.7813 113.653 30.864 113.504 30.096Z" fill="#005159"/>
</svg>
