<svg width="104" height="87" viewBox="0 0 104 87" fill="none" xmlns="http://www.w3.org/2000/svg">
<path d="M3.74378 26.175L11.7403 63.5035C11.9391 64.4316 12.7628 65.0921 13.7118 65.0845L66.1699 64.6686C67.1855 64.6606 68.0458 65.4149 68.1706 66.4228L70.0403 81.5234C70.2732 83.4037 72.7466 83.9364 73.7329 82.3187L100.018 39.2025C100.553 38.3252 100.336 37.1854 99.5164 36.5659L55.7331 3.47057C54.1641 2.28458 52.0052 3.83799 52.6311 5.70252L57.1091 19.0423C57.533 20.3049 56.6275 21.6213 55.2968 21.677L5.61572 23.7578C4.37766 23.8097 3.48422 24.9634 3.74378 26.175Z" fill="#000028" stroke="#000028" stroke-width="6" stroke-linecap="round" stroke-linejoin="round"/>
</svg>
